<svg xmlns="http://www.w3.org/2000/svg" viewBox="0 0 1600 900" role="img" aria-labelledby="title description">
  <title id="title">기획서 기본 대표 이미지</title>
  <desc id="description">열린 두 기획서 면 사이를 붉은 선이 연결하는 아카이브 심벌</desc>
  <defs>
    <linearGradient id="paper" x1="0" y1="0" x2="1" y2="1">
      <stop offset="0" stop-color="#F8FAFC"/>
      <stop offset="1" stop-color="#E9EEF8"/>
    </linearGradient>
    <radialGradient id="signal" cx="74%" cy="18%" r="70%">
      <stop offset="0" stop-color="#3157D5" stop-opacity=".2"/>
      <stop offset="1" stop-color="#3157D5" stop-opacity="0"/>
    </radialGradient>
    <pattern id="grid" width="48" height="48" patternUnits="userSpaceOnUse">
      <path d="M48 0H0V48" fill="none" stroke="#3157D5" stroke-opacity=".08"/>
    </pattern>
    <filter id="shadow" x="-20%" y="-20%" width="140%" height="150%">
      <feDropShadow dx="0" dy="28" stdDeviation="34" flood-color="#152244" flood-opacity=".14"/>
    </filter>
  </defs>
  <rect width="1600" height="900" fill="url(#paper)"/>
  <rect width="1600" height="900" fill="url(#signal)"/>
  <rect width="1600" height="900" fill="url(#grid)"/>
  <g opacity=".52" fill="none" stroke="#3157D5">
    <path d="M112 148h260M112 176h162"/>
    <path d="M1228 724h260M1326 752h162"/>
    <circle cx="1296" cy="170" r="54" stroke-opacity=".2"/>
    <circle cx="1296" cy="170" r="86" stroke-opacity=".1"/>
  </g>
  <g filter="url(#shadow)" transform="translate(472 180)">
    <rect x="0" y="0" width="656" height="540" rx="38" fill="#FFFFFF" stroke="#CBD5E1" stroke-width="3"/>
    <g transform="translate(158 112) scale(14)">
      <path d="M10 4H5.8Q4 4 4 5.8V18.2Q4 20 5.8 20H10" fill="none" stroke="#16181D" stroke-width="2.25" stroke-linecap="square" stroke-linejoin="round"/>
      <path d="M14 4H18.2Q20 4 20 5.8V18.2Q20 20 18.2 20H14" fill="none" stroke="#16181D" stroke-width="2.25" stroke-linecap="square" stroke-linejoin="round"/>
      <path d="M9 15L15 9" fill="none" stroke="#D61F3C" stroke-width="2.4" stroke-linecap="round"/>
    </g>
    <g fill="#D9E1EF">
      <rect x="92" y="430" width="472" height="12" rx="6"/>
      <rect x="170" y="462" width="316" height="10" rx="5"/>
    </g>
  </g>
  <g transform="translate(116 688)">
    <rect width="120" height="6" rx="3" fill="#D61F3C"/>
    <rect x="136" width="68" height="6" rx="3" fill="#3157D5" opacity=".28"/>
  </g>
</svg>
